<?xml version="1.0" encoding="UTF-8" standalone="no"?>
<svg xmlns="http://www.w3.org/2000/svg" viewBox="0 0 226.28 82.71"><defs><style>.cls-1{fill:#009fe3;}.cls-2{fill:#e6007e;}</style></defs><g id="txt"><path class="cls-1" d="M68.36,34.18A34.19,34.19,0,1,0,10.07,58.41h0l4.6,4.6L34.18,82.71,54.09,62.62l4.2-4.2h0A34,34,0,0,0,68.36,34.18ZM38.11,38.43l-3.93-3.94-2.79,2.79L31.31,40,21.15,50.11l-2.79-3L34.18,31.31l3.93,3.94ZM48.5,48.81l-6.74-6.73V33.73l-7.6-7.61L16.29,44A20.33,20.33,0,1,1,48.5,48.81Z"/><path class="cls-2" d="M99.68,46.82H92.31L94,34.61H85L83.26,46.82H75.9L80,17.36h7.37l-1.6,11.57h9l1.64-11.57h7.36Z"/><path class="cls-2" d="M123.84,24.24A18.87,18.87,0,0,1,128.13,26l-2.95,20.83H119L119,44a11.93,11.93,0,0,1-3.3,2.57,7.9,7.9,0,0,1-3.6.88,7,7,0,0,1-5.14-2,7.73,7.73,0,0,1-2-5.74c0-.51.07-1.32.19-2.44s.28-2.18.44-3.16q1.77-10.69,12.29-10.69A21,21,0,0,1,123.84,24.24Zm-4.76,15.09V39l1.43-10a4.21,4.21,0,0,0-1-.31,6.53,6.53,0,0,0-1.43-.15,4.39,4.39,0,0,0-3.45,1.41,9.28,9.28,0,0,0-1.77,4.73,44.8,44.8,0,0,0-.54,4.72A3.17,3.17,0,0,0,113,41.6a2.46,2.46,0,0,0,1.85.76C116.44,42.36,117.85,41.35,119.08,39.33Z"/><path class="cls-2" d="M162.85,24.13l-7.91,22.69h-8l-1.05-15.74-5.72,15.74h-8.08l-1.65-22.69h6.7l.59,16.5,5.8-16.5h6.7l1.05,16.5L156,24.13Z"/><path class="cls-2" d="M180.53,23.92l-2.06,6.57a7,7,0,0,0-1.48-.17,6.19,6.19,0,0,0-5.85,3.87l-1.72,12.63h-7.24l3.16-22.69h4.88l.5,5.18A10.85,10.85,0,0,1,174,25a7,7,0,0,1,4.25-1.41A6.09,6.09,0,0,1,180.53,23.92Z"/><path class="cls-2" d="M197.74,24.24A19.17,19.17,0,0,1,202,26l-2.95,20.83H192.9l0-2.78a11.78,11.78,0,0,1-3.3,2.57,7.84,7.84,0,0,1-3.6.88,7,7,0,0,1-5.13-2,7.69,7.69,0,0,1-2-5.74,23.42,23.42,0,0,1,.19-2.44c.12-1.12.27-2.18.44-3.16q1.77-10.69,12.29-10.69A20.93,20.93,0,0,1,197.74,24.24ZM193,39.33V39l1.43-10a4.37,4.37,0,0,0-1-.31,6.6,6.6,0,0,0-1.43-.15,4.39,4.39,0,0,0-3.45,1.41,9.1,9.1,0,0,0-1.77,4.73,43.1,43.1,0,0,0-.55,4.72,3.17,3.17,0,0,0,.72,2.27,2.43,2.43,0,0,0,1.85.76Q191.14,42.36,193,39.33Z"/><path class="cls-2" d="M224.55,25.12a6.75,6.75,0,0,1,1.73,5.07,14.09,14.09,0,0,1-.17,2.19l-2,14.44h-7.24l2.06-14.77a11.54,11.54,0,0,0,.13-1.27c0-1.48-.59-2.23-1.77-2.23A3.62,3.62,0,0,0,214.64,30a12.56,12.56,0,0,0-2.21,4.07l-1.72,12.75h-7.24l3.15-22.69h6.23l-.12,3.41a8.21,8.21,0,0,1,7.07-4.08A6.55,6.55,0,0,1,224.55,25.12Zm-.92-7.81-10,4.17L212.14,18l9.8-5.22Z"/><path class="cls-1" d="M88.36,56.18H83.11l-2.23,16H78.7l2.23-16h-5.2L76,54.43H88.59Z"/><path class="cls-1" d="M95.13,58.79l-.66,2a4.27,4.27,0,0,0-.84-.1q-2.86,0-4.28,3.4l-1.09,8.09H86.13L88,58.79h1.6l-.13,2.89a6,6,0,0,1,1.91-2.32,4.22,4.22,0,0,1,2.46-.8A3,3,0,0,1,95.13,58.79Z"/><path class="cls-1" d="M104.52,58.88a11.63,11.63,0,0,1,2.12.82l-1.77,12.48h-1.8l.22-2.77a6.15,6.15,0,0,1-2.05,2.36,4.76,4.76,0,0,1-2.56.71A4.37,4.37,0,0,1,96.55,72,3.88,3.88,0,0,1,95,70.41a4.71,4.71,0,0,1-.56-2.34,25,25,0,0,1,.33-2.94A8.43,8.43,0,0,1,97,60.2a6.08,6.08,0,0,1,4.47-1.72A10.25,10.25,0,0,1,104.52,58.88Zm-.14,1.81a5.58,5.58,0,0,0-2.71-.58,4.06,4.06,0,0,0-3.17,1.26,7.6,7.6,0,0,0-1.57,3.86,16.3,16.3,0,0,0-.3,2.66A2.94,2.94,0,0,0,97.34,70a2.33,2.33,0,0,0,1.77.75,3.54,3.54,0,0,0,2.57-1.2,8.76,8.76,0,0,0,1.92-3.39Z"/><path class="cls-1" d="M114,72.18h-3l-2.54-13.39h2.11l2.1,11.76,5.48-11.76h2.15Z"/><path class="cls-1" d="M129.83,59a3.84,3.84,0,0,1,1.61,1.26,2.84,2.84,0,0,1,.56,1.67,5.78,5.78,0,0,1-.05.59c0,.25-.06.45-.08.6-.2,1.36-1.18,2.26-2.93,2.73a28,28,0,0,1-6.68.75,4.83,4.83,0,0,0-.05.71q0,3.52,3.5,3.52a5.54,5.54,0,0,0,2-.33,8.82,8.82,0,0,0,1.78-.91l.71,1.42A7.06,7.06,0,0,1,128,72.08a8.28,8.28,0,0,1-2.55.4,4.84,4.84,0,0,1-5.35-5.22,22.94,22.94,0,0,1,.25-2.44,8,8,0,0,1,2.12-4.59,6.59,6.59,0,0,1,4.91-1.75A6.08,6.08,0,0,1,129.83,59Zm.06,3a1.48,1.48,0,0,0-.72-1.34,3.78,3.78,0,0,0-2-.46,4.2,4.2,0,0,0-3.24,1.25,6.06,6.06,0,0,0-1.46,3.34,1.91,1.91,0,0,0,0,.28,22,22,0,0,0,5.21-.54c1.29-.35,2-.93,2.14-1.74A5.91,5.91,0,0,0,129.89,62Z"/><path class="cls-1" d="M133.74,72a2,2,0,0,1-.55-1.47,5.13,5.13,0,0,1,.05-.61l2.31-16.46h2.13l-2.26,16,0,.53a.76.76,0,0,0,.19.6,1,1,0,0,0,.67.16,2.5,2.5,0,0,0,.76-.1l.06,1.55a4.05,4.05,0,0,1-1.63.3A2.33,2.33,0,0,1,133.74,72Z"/></g></svg>