<?xml version="1.0" encoding="UTF-8"?>
<!-- (c) Carrd Inc. All rights reserved. All logos and trademarks are property of their respective owners. -->
<svg xmlns="http://www.w3.org/2000/svg" version="1.1" xmlns:xlink="http://www.w3.org/1999/xlink" viewBox="0 0 40 40" display="none" width="0" height="0">
	<symbol id="check" viewBox="0 0 40 40"><path d="M37.9,10.6l-3.2-3.2c-0.4-0.4-1-0.7-1.6-0.7c-0.6,0-1.2,0.2-1.6,0.7L15.9,23l-7-7c-0.4-0.4-1-0.7-1.6-0.7S6.1,15.6,5.6,16 l-3.2,3.2c-0.4,0.4-0.7,1-0.7,1.6S2,22,2.4,22.5l8.6,8.6l3.2,3.2c0.4,0.4,1,0.7,1.6,0.7c0.6,0,1.2-0.2,1.6-0.7l3.2-3.2l17.2-17.2 c0.4-0.4,0.7-1,0.7-1.6C38.6,11.6,38.4,11.1,37.9,10.6z"/></symbol>
	<symbol id="key" viewBox="0 0 40 40"><path d="M8.3,37.5C8.3,37.5,8.3,37.5,8.3,37.5l2.4-2.4v-3.6h3.6l0.1-0.1v-3.6H18l0.1-0.1v-3.6h3.6l3.6-3.6 c3.2,1.1,6.9,0.4,9.5-2.2c3.6-3.6,3.6-9.5,0-13.1c-3.6-3.6-9.5-3.6-13.1,0c-2.6,2.6-3.3,6.3-2.2,9.5l-17,17c0,0,0,0,0,0v5.8H8.3z M28.8,7.6c1-1,2.6-1,3.7,0c1,1,1,2.6,0,3.7c-1,1-2.6,1-3.7,0C27.7,10.2,27.7,8.6,28.8,7.6z"/></symbol>
	<symbol id="arrow-left-light" viewBox="0 0 40 40"><path d="M5.5,19.9c0-0.3,0.1-0.3,0.1-0.4L18.3,6.7c0.1-0.1,0.1-0.1,0.4-0.1c0.3,0,0.3,0.1,0.4,0.1l1.5,1.5c0.1,0.1,0.1,0.1,0.1,0.4 S20.6,8.9,20.6,9l-9.2,9.2h22.4c0.1,0,0.2,0,0.2,0c0,0,0,0,0,0c0.1,0.1,0.1,0.2,0.1,0.4v2.5c0,0.2-0.1,0.4-0.1,0.5c0,0-0.1,0-0.2,0 H11.4l9.2,9.2c0.1,0.1,0.1,0.1,0.1,0.4c0,0.3-0.1,0.3-0.1,0.4l-1.5,1.5c-0.1,0.1-0.1,0.1-0.4,0.1c-0.3,0-0.3-0.1-0.4-0.1L5.6,20.3 C5.6,20.2,5.5,20.2,5.5,19.9z"/></symbol>
	<symbol id="arrow-right-light" viewBox="0 0 40 40"><path d="M34.1,19.9c0,0.3-0.1,0.3-0.1,0.4L21.3,33.1c-0.1,0.1-0.1,0.1-0.4,0.1c-0.3,0-0.3-0.1-0.4-0.1L19,31.6 c-0.1-0.1-0.1-0.1-0.1-0.4s0.1-0.3,0.1-0.4l9.2-9.2H5.8c-0.1,0-0.2,0-0.2,0c0,0,0,0,0,0c-0.1-0.1-0.1-0.2-0.1-0.4v-2.5 c0-0.2,0.1-0.4,0.1-0.5c0,0,0.1,0,0.2,0h22.4L19,9c-0.1-0.1-0.1-0.1-0.1-0.4c0-0.3,0.1-0.3,0.1-0.4l1.5-1.5c0.1-0.1,0.1-0.1,0.4-0.1 c0.3,0,0.3,0.1,0.4,0.1L34,19.5C34,19.6,34.1,19.6,34.1,19.9z"/></symbol>
	<symbol id="facebook" viewBox="0 0 40 40"><path d="M38,20.1c0-9.9-8.1-18-18-18S2,10.1,2,20.1s5.8,15.5,13.7,17.5v-12h-3.7v-5.5h3.7v-2.4c0-6.1,2.8-9,8.8-9s3.1.2,3.9.4v5c-.4,0-1.2,0-2.1,0-3,0-4.1,1.1-4.1,4v1.9h5.9l-1,5.5h-4.9v12.4c8.9-1.1,15.8-8.7,15.8-17.9Z"/></symbol>
	<symbol id="email" viewBox="0 0 40 40"><path d="M37.3,15.3v15.3c0,0.8-0.3,1.6-0.9,2.2c-0.6,0.6-1.4,0.9-2.2,0.9H5.8c-0.8,0-1.6-0.3-2.2-0.9s-0.9-1.4-0.9-2.2V15.3 c0.5,0.6,1.2,1.1,2,1.7c4.7,3.1,7.9,5.4,9.6,6.7c0.7,0.5,1.4,0.9,1.8,1.2c0.4,0.3,1,0.6,1.9,0.9c0.7,0.3,1.5,0.5,2.1,0.5l0,0 c0.6,0,1.4-0.2,2.1-0.5c0.7-0.3,1.4-0.6,1.9-0.9c0.4-0.3,1-0.7,1.8-1.2c2.2-1.6,5.4-3.8,9.6-6.7C36.1,16.5,36.7,15.9,37.3,15.3 L37.3,15.3z M37.3,9.6c0,1-0.3,2-0.9,2.9c-0.6,0.9-1.5,1.8-2.4,2.4c-4.9,3.3-7.9,5.4-9,6.2c-0.1,0.1-0.4,0.3-0.8,0.6 c-0.4,0.3-0.7,0.5-1,0.7c-0.3,0.2-0.6,0.4-1,0.6c-0.4,0.2-0.7,0.4-1.1,0.5c-0.4,0.1-0.6,0.2-0.9,0.2l0,0c-0.3,0-0.6-0.1-0.9-0.2 c-0.3-0.1-0.7-0.3-1.1-0.5c-0.4-0.2-0.7-0.4-1-0.6c-0.3-0.2-0.6-0.4-1-0.7c-0.4-0.3-0.7-0.5-0.8-0.6c-1.1-0.8-2.8-2-5.1-3.5 c-2.3-1.6-3.3-2.4-3.7-2.7c-0.8-0.5-1.6-1.2-2.3-2.2s-1-1.9-1-2.6c0-1,0.3-1.9,0.8-2.5c0.5-0.6,1.2-1,2.3-1h28.4 c0.8,0,1.6,0.3,2.2,0.9C37.1,8.1,37.3,8.8,37.3,9.6L37.3,9.6z"/></symbol>
</svg>
